HIERARCHY
ROOT Hips
{
	OFFSET -14.64140 90.27770 -84.91600
	CHANNELS 6 Xposition Yposition Zposition Zrotation Xrotation Yrotation
	JOINT Spine
	{
		OFFSET 0.00000 13.20850 -1.60436
		CHANNELS 3 Zrotation Xrotation Yrotation
		JOINT Spine1
		{
			OFFSET 0.00000 8.61716 0.00000
			CHANNELS 3 Zrotation Xrotation Yrotation
			JOINT Spine2
			{
				OFFSET 0.00000 8.61717 0.00000
				CHANNELS 3 Zrotation Xrotation Yrotation
				JOINT Spine3
				{
					OFFSET 0.00000 8.61717 0.00000
					CHANNELS 3 Zrotation Xrotation Yrotation
					JOINT Neck
					{
						OFFSET 0.00000 11.07920 1.10792
						CHANNELS 3 Zrotation Xrotation Yrotation
						JOINT Neck1
						{
							OFFSET 0.00000 7.08032 0.00000
							CHANNELS 3 Zrotation Xrotation Yrotation
							JOINT Head
							{
								OFFSET 0.00000 7.08031 0.00000
								CHANNELS 3 Zrotation Xrotation Yrotation
								End site
								{
									OFFSET 0.00000 0.00000 0.00000
								}
							}
						}
					}
					JOINT RightShoulder
					{
						OFFSET -0.01000 7.91373 5.19711
						CHANNELS 3 Zrotation Xrotation Yrotation
						JOINT RightArm
						{
							OFFSET -18.41580 0.00000 0.00000
							CHANNELS 3 Zrotation Xrotation Yrotation
							JOINT RightForeArm
							{
								OFFSET -29.11090 0.00000 0.00000
								CHANNELS 3 Zrotation Xrotation Yrotation
								JOINT RightHand
								{
									OFFSET -24.65040 0.00000 0.00000
									CHANNELS 3 Zrotation Xrotation Yrotation
									JOINT RightHandThumb1
									{
										OFFSET -5.35114 -0.85590 3.97906
										CHANNELS 3 Zrotation Xrotation Yrotation
										JOINT RightHandThumb2
										{
											OFFSET -4.52789 0.00000 0.00000
											CHANNELS 3 Zrotation Xrotation Yrotation
											JOINT RightHandThumb3
											{
												OFFSET -2.46976 0.00000 0.00000
												CHANNELS 3 Zrotation Xrotation Yrotation
												End site
												{
													OFFSET 0.00000 0.00000 0.00000
												}
											}
										}
									}
									JOINT RightHandIndex1
									{
										OFFSET -14.26970 0.00000 2.88139
										CHANNELS 3 Zrotation Xrotation Yrotation
										JOINT RightHandIndex2
										{
											OFFSET -5.48836 0.00000 0.00000
											CHANNELS 3 Zrotation Xrotation Yrotation
											JOINT RightHandIndex3
											{
												OFFSET -3.01859 0.00000 0.00000
												CHANNELS 3 Zrotation Xrotation Yrotation
												End site
												{
													OFFSET 0.00000 0.00000 0.00000
												}
											}
										}
									}
									JOINT RightHandMiddle1
									{
										OFFSET -14.26970 0.00000 -0.09147
										CHANNELS 3 Zrotation Xrotation Yrotation
										JOINT RightHandMiddle2
										{
											OFFSET -6.17441 0.00000 0.00000
											CHANNELS 3 Zrotation Xrotation Yrotation
											JOINT RightHandMiddle3
											{
												OFFSET -3.56743 0.00000 0.00000
												CHANNELS 3 Zrotation Xrotation Yrotation
												End site
												{
													OFFSET 0.00000 0.00000 0.00000
												}
											}
										}
									}
									JOINT RightHandRing1
									{
										OFFSET -12.69180 0.00000 -3.06433
										CHANNELS 3 Zrotation Xrotation Yrotation
										JOINT RightHandRing2
										{
											OFFSET -5.62556 0.00000 0.00000
											CHANNELS 3 Zrotation Xrotation Yrotation
											JOINT RightHandRing3
											{
												OFFSET -3.56744 0.00000 0.00000
												CHANNELS 3 Zrotation Xrotation Yrotation
												End site
												{
													OFFSET 0.00000 0.00000 0.00000
												}
											}
										}
									}
									JOINT RightHandPinky1
									{
										OFFSET -11.11390 0.00000 -6.03719
										CHANNELS 3 Zrotation Xrotation Yrotation
										JOINT RightHandPinky2
										{
											OFFSET -4.52789 0.00000 0.00000
											CHANNELS 3 Zrotation Xrotation Yrotation
											JOINT RightHandPinky3
											{
												OFFSET -2.46976 0.00000 0.00000
												CHANNELS 3 Zrotation Xrotation Yrotation
												End site
												{
													OFFSET 0.00000 0.00000 0.00000
												}
											}
										}
									}
								}
							}
						}
					}
					JOINT LeftShoulder
					{
						OFFSET 0.01000 7.91373 5.19711
						CHANNELS 3 Zrotation Xrotation Yrotation
						JOINT LeftArm
						{
							OFFSET 18.41580 0.00000 0.00000
							CHANNELS 3 Zrotation Xrotation Yrotation
							JOINT LeftForeArm
							{
								OFFSET 29.11090 0.00000 0.00000
								CHANNELS 3 Zrotation Xrotation Yrotation
								JOINT LeftHand
								{
									OFFSET 24.65040 0.00000 0.00000
									CHANNELS 3 Zrotation Xrotation Yrotation
									JOINT LeftHandThumb1
									{
										OFFSET 5.35114 -0.85590 3.97906
										CHANNELS 3 Zrotation Xrotation Yrotation
										JOINT LeftHandThumb2
										{
											OFFSET 4.52789 0.00000 0.00000
											CHANNELS 3 Zrotation Xrotation Yrotation
											JOINT LeftHandThumb3
											{
												OFFSET 2.46977 0.00000 0.00000
												CHANNELS 3 Zrotation Xrotation Yrotation
												End site
												{
													OFFSET 0.00000 0.00000 0.00000
												}
											}
										}
									}
									JOINT LeftHandIndex1
									{
										OFFSET 14.26970 0.00000 2.88139
										CHANNELS 3 Zrotation Xrotation Yrotation
										JOINT LeftHandIndex2
										{
											OFFSET 5.48836 0.00000 0.00000
											CHANNELS 3 Zrotation Xrotation Yrotation
											JOINT LeftHandIndex3
											{
												OFFSET 3.01859 0.00000 0.00000
												CHANNELS 3 Zrotation Xrotation Yrotation
												End site
												{
													OFFSET 0.00000 0.00000 0.00000
												}
											}
										}
									}
									JOINT LeftHandMiddle1
									{
										OFFSET 14.26970 0.00000 -0.09147
										CHANNELS 3 Zrotation Xrotation Yrotation
										JOINT LeftHandMiddle2
										{
											OFFSET 6.17440 0.00000 0.00000
											CHANNELS 3 Zrotation Xrotation Yrotation
											JOINT LeftHandMiddle3
											{
												OFFSET 3.56744 0.00000 0.00000
												CHANNELS 3 Zrotation Xrotation Yrotation
												End site
												{
													OFFSET 0.00000 0.00000 0.00000
												}
											}
										}
									}
									JOINT LeftHandRing1
									{
										OFFSET 12.69180 0.00000 -3.06433
										CHANNELS 3 Zrotation Xrotation Yrotation
										JOINT LeftHandRing2
										{
											OFFSET 5.62556 0.00000 0.00000
											CHANNELS 3 Zrotation Xrotation Yrotation
											JOINT LeftHandRing3
											{
												OFFSET 3.56744 0.00000 0.00000
												CHANNELS 3 Zrotation Xrotation Yrotation
												End site
												{
													OFFSET 0.00000 0.00000 0.00000
												}
											}
										}
									}
									JOINT LeftHandPinky1
									{
										OFFSET 11.11390 0.00000 -6.03719
										CHANNELS 3 Zrotation Xrotation Yrotation
										JOINT LeftHandPinky2
										{
											OFFSET 4.52789 0.00000 0.00000
											CHANNELS 3 Zrotation Xrotation Yrotation
											JOINT LeftHandPinky3
											{
												OFFSET 2.46976 0.00000 0.00000
												CHANNELS 3 Zrotation Xrotation Yrotation
												End site
												{
													OFFSET 0.00000 0.00000 0.00000
												}
											}
										}
									}
								}
							}
						}
					}
					JOINT pCube4
					{
						OFFSET 0.00000 10.91090 1.10792
						CHANNELS 3 Zrotation Xrotation Yrotation
						End site
						{
							OFFSET 0.00000 0.00000 0.00000
						}
					}
				}
			}
		}
	}
	JOINT RightUpLeg
	{
		OFFSET -9.98441 0.00000 0.00000
		CHANNELS 3 Zrotation Xrotation Yrotation
		JOINT RightLeg
		{
			OFFSET 0.00000 -42.11790 0.00000
			CHANNELS 3 Zrotation Xrotation Yrotation
			JOINT RightFoot
			{
				OFFSET 0.00000 -45.00020 -0.00001
				CHANNELS 3 Zrotation Xrotation Yrotation
				JOINT RightForeFoot
				{
					OFFSET 0.00000 -3.74820 0.00000
					CHANNELS 3 Zrotation Xrotation Yrotation
					JOINT RightToeBase
					{
						OFFSET 0.00000 0.06325 14.43120
						CHANNELS 3 Zrotation Xrotation Yrotation
						End site
						{
							OFFSET 0.00000 0.00000 0.00000
						}
					}
				}
			}
		}
	}
	JOINT LeftUpLeg
	{
		OFFSET 9.98441 0.00000 0.00000
		CHANNELS 3 Zrotation Xrotation Yrotation
		JOINT LeftLeg
		{
			OFFSET 0.00000 -42.11800 0.00000
			CHANNELS 3 Zrotation Xrotation Yrotation
			JOINT LeftFoot
			{
				OFFSET 0.00000 -45.00070 0.00000
				CHANNELS 3 Zrotation Xrotation Yrotation
				JOINT LeftForeFoot
				{
					OFFSET 0.00000 -3.74824 0.00000
					CHANNELS 3 Zrotation Xrotation Yrotation
					JOINT LeftToeBase
					{
						OFFSET 0.00000 0.06325 14.43110
						CHANNELS 3 Zrotation Xrotation Yrotation
						End site
						{
							OFFSET 0.00000 0.00000 0.00000
						}
					}
				}
			}
		}
	}
}
MOTION
Frames: 4
Frame Time: 0.050000
-0.02325813391536727 -0.0403278415429128 0.0007617971766006064 0.009965717460543146 -0.011630808714534993 -0.03311315072841711 2.8603195469232965 3.732089311130517 -1.7602753307603882 -0.6628054976124721 3.5406676783372717 0.38293352666111263 -0.7736092756583136 -1.104983343113198 1.6545587324808972 -0.9205742458324503 -0.6720046539038093 -0.21666610697447702 0.358569820375468 11.928864773555256 -1.988509457264144 0.1730107766876242 -0.9360148425930502 -6.179270622185628 0.9426021034850641 -17.10153675873882 -0.5053463121782092 -9.654623722423779 3.4940001723477407 -15.691579569008482 76.30034843352716 -9.05922545073206 23.373183229439668 22.183993682259384 4.78314136115629 80.15647506562492 17.119565844402924 -0.4207636628442084 -5.9206105946166 4.575871062512144 -0.16637194437568031 -1.5690364695265933 -0.028748476659989038 0.04945096602995413 -56.25158282340167 -0.017856896759329503 0.04663714914991407 -56.25742946696905 -38.76474548916739 0.04805841156201918 -0.003545168629562945 -0.00835571791462524 -0.030228023430266825 -0.03312583149340739 -0.04800121041623433 -0.03167529639087102 0.00407643973063825 -36.73942897485289 0.0037100511307240065 -0.021555317060327022 -0.03537152701585528 0.0474965070015718 0.03519117777354505 0.014444041168040562 -0.01353776881530905 0.007120336386944957 -19.77397820344127 -0.04533826045701333 0.012109558881138793 0.021728210605625003 0.04189371636511854 -0.04191224707341405 0.030879417866447375 0.017018900583479556 -0.026672040947022142 24.0579472667947 -0.01276124689327455 0.010163266221267009 28.88364386482306 0.009661614918487616 0.041062842639363176 28.896371040756822 -0.024570596070552238 0.03119404318684341 7.752861193375651 2.069354705767793 13.77610601222522 -74.95364796496189 7.266156737816359 -14.04168553356044 -11.154363153462825 12.587092121457351 -54.54646334799156 -21.30886192898832 2.296132404403994 -0.7085421123284373 -0.48833644429499706 0.08673684810889501 -8.104966740524063 -0.016420146167341897 0.009265861461783164 44.60625402328036 -0.0030521759349664214 -0.014190149923345243 44.61168076715639 12.473097604678774 -0.018814734329030993 0.03343923067292901 -0.03700159081176953 -0.02413975810919085 -0.026704810051903897 0.017107756890197712 0.001167393000802954 -0.014226188349824686 11.05835736774914 -0.026725731165882692 -0.01305251553100118 0.026415085036600738 0.006732130435449626 -0.005597028181498308 -0.00042759275009744056 -0.013090333234661775 0.0017892457867191112 4.743207993669683 0.016825304051233513 -0.00748487103115789 0.00550082727634989 0.0012573957071261334 -0.00896737928101025 0.04092837175612722 0.007141717336186105 -0.018715968007453784 -5.605932260066474 -0.03890177065974191 0.028386646191609705 -6.712630086039509 0.04228034246579125 -0.004365645361812701 -6.769134572495348 0.04653803673429943 -0.016972395274587982 -0.034382934575391946 0.005535645319459335 0.0215239293993371 8.051696833397822 3.504309958337286 -19.24361857189206 0.029060202802009334 10.364494268366274 0.006064173588552059 -5.640417189828111 -15.64732353271049 3.1445553257838434 0.03209478271522434 0.008310106329043132 -0.004969857217627533 -0.027786983977286 4.7182206870303345 -0.03983652770545474 12.424026547602905 -8.1925910039482 6.905925183817263 -0.0010787232757623539 46.35120031921754 0.014392535850214331 -4.343741779626672 -14.72292338069368 -3.8848671917908377 -0.03202051966828238 0.0015173913477741089 -0.045763721277842076 0.039872937738566525 -10.746228968406266 0.008701798324847245 
0.0032019697773907918 -0.015220081072791457 0.011944414747313163 0.031646790290318354 -0.01893087454742211 -8.45326000097103e-06 2.5616477539574243 3.6921570525742764 -1.720136801842756 -0.7372037643199404 3.56488238545743 0.4499769306761291 -0.7666956310428298 -1.1674607696854515 1.8511999702397046 -0.8824755150714795 -0.630558863448864 -0.20541404534250657 0.5010628801235181 12.131030851119094 -2.2437869170875104 0.15395651075254718 -0.8570048465311603 -6.985655779811315 1.0589899959592541 -16.970246129905288 -0.563259953615352 -9.738381863046316 3.5711053596476603 -15.606591074278928 75.42008858053973 -10.546683202851762 25.838381701398617 22.17221838297333 4.895574815899265 80.9376839527915 16.68242717481431 -0.40352084454171083 -5.51323478036507 4.550497228789427 -0.12444156180710847 -1.585321670146869 0.004152250714934606 -0.047256857680825264 -56.195427626728545 0.010661409916769447 -0.023793117426218507 -56.24174029452071 -38.750419968397196 -0.03326712398807403 -0.001458875201137402 0.032206123428321846 -0.012390740965329411 0.0376132334938403 0.012249541413876623 0.009121404006783075 0.021275849230860896 -36.65233454205002 0.01735947127914205 -0.002035186954184097 0.0011106408574354195 0.049665640963135874 0.011159170875168746 0.04730527606085126 -0.0048207066641410634 0.010339219234935942 -19.726888578959148 0.01703741735055744 0.028072162654359082 0.011906086611015646 0.003805020330724924 0.042219259006375326 0.014923545803829966 0.01479496310355627 0.029870884557536326 24.079559039374633 -0.04302157482026309 0.035531912890201856 28.873900226638767 -0.016612070529997275 0.017832991334900662 28.876117809832984 0.03517425392137607 -0.011756995353396669 7.4061267336890335 1.9953933042859144 13.780581514146634 -75.07990501692215 5.95962055784233 -14.2501873877782 -8.82054588037441 14.549990050042101 -52.58199439183612 -20.758669291135487 4.582963128216881 -2.112203534204078 -0.517417344122491 0.10391616983591197 -8.092988394076796 0.025106606892526702 0.02964436464176323 44.597615159205844 0.003579219518219092 0.014558231785012025 44.5375491091571 12.502216688741356 0.007189206119852075 0.029435251048601924 -0.010947952052253816 -0.0134313052490396 0.040412826621228276 -0.04913455705836225 0.0477157036908676 0.03538314876480135 11.116767985406124 0.047425685118710925 0.01409358485288202 -0.02136737892065087 -0.016338776395505364 -0.009125951697392111 -0.01539949510774015 -0.03746356025168524 0.027789942980127408 4.784467925302968 -0.027710631908830257 -0.02968465624636465 0.03640802790752075 0.016990998956945703 0.01650562900932806 0.01013256613265792 0.024908093340497716 -0.04579373538671572 -5.613797087667337 -0.04152442835945693 -0.025468051744744383 -6.704826438835789 0.01398192323947722 0.014778194680078292 -6.689355334396361 -0.04509362503230245 -0.00833649464550967 0.0013481796596826214 0.03467008283197433 0.01006263792379788 8.013823318594653 3.4498980217810344 -19.25796961391495 -0.0145109713300804 10.347562658472 0.026722508080532958 -5.616010138783534 -15.661734233046776 3.1918405933479272 0.029026022420115396 0.049796569685575345 0.017685221068384393 -0.0029991081861852646 4.6857743781524865 0.034393942631744445 12.453640584936302 -8.247978199813037 6.855832799182055 -0.0004847118105670498 46.38297018610462 0.04166043361453728 -4.309191599013881 -14.70455749319444 -3.833933604414507 0.023597469962750924 -0.029017384432298607 -0.005438325557039815 0.01127979649942363 -10.78005013285024 0.006492831212933433 
0.008376959394333194 -0.02894404997413142 -0.01918974664778419 -0.036018289603642936 0.029511162247652902 -0.029230056005812258 2.317376911277168 3.5897404964457653 -1.681230620413932 -0.7211947380810889 3.5538173002836495 0.4341960070415133 -0.8102314017347206 -1.1985025902655158 1.976590135567678 -0.9067380798008638 -0.6599442391166775 -0.2122842340866022 0.5551729514888211 12.248360068652856 -2.386907934961996 0.13318631269714326 -0.8035454087999913 -7.470116396557593 1.0552449035654723 -16.772385194132468 -0.5710444793609031 -9.93163333316127 3.573022573534213 -15.486566517834504 74.32115676129565 -12.426725715160567 28.389487926826266 21.511185743975876 4.887633464839544 81.08247602866938 16.42093117124206 -0.4209379471982044 -5.134216967949654 4.48363325418892 -0.12507725905465591 -1.590412882058434 -0.0198074863110769 0.016539448553112884 -56.20721595946961 -0.005843068276144186 -0.014930663193131688 -56.21963367679608 -38.80973361168356 0.008819534131105432 0.005172124413536372 0.03339261395493702 0.03832861582677195 0.005787624190209314 -0.03090863983209754 0.043401333088815865 0.0008628404045882667 -36.68166199793776 0.02199289437133661 -0.0028536720454046594 -0.027997361300304207 0.014625370884620703 5.682831295904685e-05 -0.03554586173704319 -0.04547433759467227 0.041726826101282824 -19.74865114044723 -0.009631354446213818 0.020607773219671242 -0.022429272989577975 -0.026612792467405437 0.003008392493070952 -0.0041270817122669645 -0.007383814072250747 -0.005729755083370488 24.074262885522003 0.002089235691701417 0.03378895538373567 28.836749978163425 0.007082837763894684 -0.02652545339312599 28.86888255011554 0.018948687999577805 0.03355929209486506 7.114997908301502 1.8722833500596847 13.793206264808166 -75.22092229644124 4.35642078458682 -14.069215600278728 -5.301877002882291 16.047798113312382 -49.35037305296676 -20.605085253804052 6.901596439096787 -3.470665236136052 -0.5146427835231446 0.0742106256133341 -8.094479402368135 0.01356605023801364 0.03790517732033019 44.58690662782481 0.013222205679685614 -0.008236795085366042 44.55969430087589 12.465217560736134 0.02431890624393186 0.01718873605557541 0.03689085221511126 0.046402737473235416 0.022903701513297386 0.014398780270650328 -0.040966229905072614 -0.010571332572918278 11.146267212246782 0.0415582886656098 -0.036456757228694694 0.02999157483561297 0.0026360426509322893 0.006596738229893039 0.0384807451648532 0.0380746683249833 -0.0445014500787303 4.736428542946765 -0.03654924261977011 -0.02497046489840702 -0.026972054070816622 0.02658692997510185 0.004413818784875026 0.0019831567325418412 -0.014147556181811212 0.0041793882664542025 -5.606388107342699 0.006079306222048979 0.02875348067526199 -6.742679591733028 0.04191739126745303 0.01559225195724012 -6.678507290916903 0.03165866372013722 -0.012371931633009804 0.0055490735273090765 0.0006685225552824599 0.01887328314521062 8.07450534170331 3.527200433782247 -19.226478197165225 -0.0010204767815508637 10.400884765570494 0.04567999502492316 -5.6205263348946115 -15.628022270017333 3.192707201013578 0.020569522272203187 0.01988401270203386 0.003145145573480847 0.00012051791689524644 4.69649504341282 0.00857604662843532 12.480173256426246 -8.260353753738391 6.8991797763768625 -0.0035575703670094262 46.36571878394633 0.017431364686807196 -4.345976303359779 -14.79115099277716 -3.815916749265101 0.03848427588837455 -0.048867146007968515 0.028538395891538233 -0.026501137465416963 -10.761360306943978 -0.028294021266382748 
-0.029721692927744892 -0.003179831341582477 0.0027429162684410487 0.04289666529693836 0.033236975295999005 -0.02762513216302418 2.0502576827102716 3.5496896799179303 -1.6043942860276628 -0.6670028758407462 3.579403392049677 0.4141156619183856 -0.9163904442875563 -1.1544288925466766 2.1281312580788168 -0.9968963307689799 -0.6871727241144171 -0.22914921572620528 0.6096667041665481 12.227523637950796 -2.3603419574394104 0.11559484301021486 -0.7140439588550312 -7.459072393977059 1.0441483304991594 -16.64849741929654 -0.594665785414654 -9.739769829326145 3.5706134320897904 -15.409903312939885 73.24207463101276 -13.40122475805848 29.51076806497261 20.421016817777883 4.882888133889545 81.9050426934037 16.55209418743958 -0.3997852310299627 -4.876790579882533 4.544061052985986 -0.11449639178743735 -1.6247688616196987 -0.013096393323358047 0.017693248064703883 -56.21249791705381 0.006548051453434174 -0.00872081620869499 -56.24142299994485 -38.723498700407454 -0.01649541471026833 -0.006111031266193067 0.043969326376530955 -0.040696733548373214 0.04515541270630352 0.04972530656582146 0.019637883145575203 0.023979788894460854 -36.66860940350407 -0.0280727344963665 0.04491088878560333 -0.0009485166347406312 0.031720419679505236 0.010738544511645975 -0.03796605824568801 -0.021091804285949794 -0.01812482082748816 -19.775438110432656 -0.04001639385189004 0.004958813804015183 0.003944081044797343 0.013168939597103607 0.00806787064926765 0.043567357079792125 0.043411716034914206 0.03825931587203451 24.075729511968646 -0.029221513477925915 0.014703002032910696 28.87001641492307 0.014020656148643782 -0.03040194511692652 28.824421163506308 -0.03764582230768921 0.02076736750822172 6.743002164017026 1.8745002024521118 13.866686693453396 -75.45650364110922 3.5550992233074554 -13.39618290489854 -1.878209999893021 17.128705474576144 -46.419694532855566 -20.50581608807861 8.802396495494564 -4.572575949709066 -0.43402904945829335 0.0714819365573646 -8.15918776780385 0.015669514214820126 -0.015866227083570834 44.55379016483539 -0.030393099380066485 0.04875860455305731 44.58431049588099 12.460351735925615 0.04556139669180157 -0.01668509259531972 0.038679427727641214 -0.03211929510170728 0.040062301064275815 -0.01807380077004468 -0.047980405416673824 0.015510570743869589 11.131532708341794 0.029206337885643106 -0.04516685878057496 -0.010970654433740894 -0.017810860223704678 -0.002710815086139392 0.015379379237840374 -0.04082845000135669 -0.006668127132839536 4.792064989424487 0.04795956137298724 -0.022615145155741315 0.0013786090603307697 -0.007059377028997582 -0.012765161885638256 -0.028273365503425477 -0.02039772930463696 0.037841306513743234 -5.585652405567355 -0.015860135289326345 0.010890772134312004 -6.688988255450757 -0.011636952403780152 0.012639268185985797 -6.70988550429694 0.032607848836210915 -0.022874648585149482 -0.003584750378933503 -0.029027609960374453 -0.025521043403136226 8.077132737508155 3.489400055625125 -19.25510749361054 0.009332288111734543 10.413403086112217 0.04357469837016541 -5.592116831824137 -15.617496630949502 3.16914781188135 -0.015983384904035326 0.043535224983492375 -0.018188724839740045 -0.010168449005780249 4.696673101071523 -0.04032577416834502 12.440678794110909 -8.257494468785762 6.865968246958338 0.01845466612334975 46.36540686220354 0.035157861856179924 -4.341074548231961 -14.720067532344407 -3.8733208201333182 0.007671622717915545 0.027527672280539435 -0.010848730181029132 -0.038227633925483034 -10.766213271644771 -0.033861890771120146 
